<svg clip-rule="evenodd" fill-rule="evenodd" stroke-linejoin="round" stroke-miterlimit="2" viewBox="0 0 560 400" xmlns="http://www.w3.org/2000/svg"><g fill-rule="nonzero" transform="matrix(5.62286 0 0 5.62286 59.0021 155)"><path d="m0 1.727h2.26v11.904h6.246v2.093h-8.506zm10.729 0c.183-.003.365.031.535.099.171.068.326.169.457.297.132.128.237.28.309.449.072.168.111.349.113.533 0 .375-.149.735-.414 1s-.625.414-1 .414-.735-.149-1.001-.414c-.265-.265-.414-.625-.414-1 .001-.184.038-.366.11-.535s.177-.323.308-.451c.132-.128.288-.229.459-.296.171-.068.354-.1.538-.096zm-1.103 3.913h2.168v10.084h-2.168zm3.436 0h2.168v1.396c.641-1.065 1.744-1.672 3.195-1.672 2.352 0 3.821 1.837 3.821 4.759v5.601h-2.168v-5.418c0-1.892-.826-2.958-2.319-2.958-1.634 0-2.534 1.121-2.534 3.142v5.234h-2.168zm10.323-3.913h2.168v8.855l4.042-4.942h2.718l-4.317 5.052 4.317 5.032h-2.718l-4.042-4.922v4.922h-2.168zm9.774 1.347h2.204v2.572h2.572v1.8h-2.572v5.198c0 .663.404 1.067 1.029 1.067h1.452v2.019h-1.746c-1.892 0-2.939-1.12-2.939-3.103zm5.731 2.572h2.168v1.249c.533-.955 1.433-1.525 2.535-1.525.255-.011.509.02.754.092v2.021c-.266-.058-.537-.083-.809-.073-1.598 0-2.48 1.347-2.48 3.656v4.664h-2.168zm10.526-.276c2.388 0 4.978 1.452 4.978 5.549v.294h-7.771c.167 1.799 1.213 2.791 2.958 2.791 1.249 0 2.315-.68 2.554-1.616h2.204c-.22 2.02-2.314 3.618-4.758 3.618-3.123 0-5.087-2.039-5.087-5.326 0-2.927 1.892-5.316 4.922-5.316zm2.664 4.042c-.313-1.249-1.286-2.039-2.664-2.039-1.323 0-2.259.808-2.626 2.039zm8.193-4.042c2.388 0 4.979 1.452 4.979 5.549v.294h-7.771c.165 1.799 1.212 2.791 2.958 2.791 1.249 0 2.314-.68 2.553-1.616h2.205c-.221 2.02-2.315 3.618-4.758 3.618-3.124 0-5.089-2.039-5.089-5.326 0-2.927 1.892-5.316 4.923-5.316zm2.664 4.042c-.312-1.249-1.286-2.039-2.664-2.039-1.323 0-2.259.808-2.627 2.039z"/><path d="m65.785 5.334h3.877l-2.756-2.627 1.525-1.568 2.627 2.701v-3.84h2.278v3.84l2.627-2.695 1.523 1.562-2.754 2.621h3.875v2.167h-3.897l2.773 2.695-1.52 1.531-3.766-3.785-3.766 3.785-1.525-1.525 2.774-2.694h-3.895zm5.267 5.272h2.278v5.144h-2.278z" fill="#43e660"/></g></svg>